<?xml version="1.0" encoding="utf-8"?>
<!-- Generator: Adobe Illustrator 16.0.0, SVG Export Plug-In . SVG Version: 6.00 Build 0)  -->
<!DOCTYPE svg PUBLIC "-//W3C//DTD SVG 1.1//EN" "http://www.w3.org/Graphics/SVG/1.1/DTD/svg11.dtd">
<svg version="1.1" xmlns="http://www.w3.org/2000/svg" xmlns:xlink="http://www.w3.org/1999/xlink" x="0px" y="0px" width="714px"
	 height="713px" viewBox="0 0 714 713" enable-background="new 0 0 714 713" xml:space="preserve">
<g id="circle">
	<circle id="Circle" fill-rule="evenodd" clip-rule="evenodd" fill="#FFFFFF" cx="360" cy="357" r="347"/>
</g>
<g id="shadow">
	<g>
		<defs>
			<circle id="Circle_1_" cx="360" cy="357" r="347"/>
		</defs>
		<clipPath id="Circle_2_">
			<use xlink:href="#Circle_1_"  overflow="visible"/>
		</clipPath>
		<polygon id="shadow_1_" clip-path="url(#Circle_2_)" fill-rule="evenodd" clip-rule="evenodd" fill="#F2F2F2" points="
			512.376,837.376 239.386,567.332 257.242,541.212 475.074,541.212 457,432 396,358.027 463,274 463.129,197.474 492.605,148.625 
			846.866,502.886 		"/>
	</g>
</g>
<g id="time_glass">
	<g>
		<g>
			<path fill-rule="evenodd" clip-rule="evenodd" fill="#71C596" d="M257.242,541.212c-0.134-0.742-0.348-1.37-0.348-1.997
				c0.018-24.555-0.004-49.108,0.105-73.661c0.087-19.58,7.706-36.447,19.113-51.882c10.122-13.697,22.773-24.941,35.214-36.405
				c4.321-3.981,8.534-8.146,12.312-12.634c4.282-5.086,4.433-8.438-0.1-13.373c-6.404-6.972-13.352-13.463-20.286-19.926
				c-12.483-11.634-24.502-23.636-33.432-38.359c-8.264-13.625-12.947-28.27-12.925-44.32c0.033-23.681-0.01-47.362-0.006-71.043
				c0-0.854,0.143-1.709,0.237-2.769c72.539,0,144.948,0,217.616,0c0.104,0.761,0.314,1.583,0.313,2.405
				c-0.03,24.881,0.083,49.764-0.182,74.643c-0.202,18.971-7.902,35.294-18.921,50.278c-10.156,13.813-22.898,25.12-35.432,36.644
				c-4.245,3.903-8.387,7.988-12.084,12.4c-4.393,5.239-4.447,8.461,0.11,13.649c4.808,5.472,10.116,10.537,15.483,15.477
				c12.459,11.465,24.811,22.997,34.5,37.038c10.961,15.883,16.878,33.244,16.62,52.744c-0.295,22.369-0.073,44.743-0.077,67.115
				c0,1.28,0,2.56,0,3.978C402.201,541.212,329.774,541.212,257.242,541.212z M457.676,192.051c-6.949,0-13.373,0-19.797,0
				c-53.25,0-106.5,0.018-159.75-0.052c-2.875-0.004-3.921,0.645-3.889,3.784c0.167,16.475,0.341,32.958,0.002,49.428
				c-0.331,16.02,4.527,30.231,13.473,43.261c7.335,10.685,16.466,19.73,25.827,28.603c8.222,7.792,16.719,15.402,24.091,23.957
				c9.012,10.459,8.838,23.032,0.153,33.843c-4.618,5.748-10.205,10.724-15.402,16.001c-10.092,10.247-20.803,19.955-30.183,30.814
				c-12.453,14.417-18.688,31.387-17.992,50.864c0.564,15.802,0.114,31.641,0.114,47.463c0,1.164,0,2.328,0,3.579
				c61.33,0,122.223,0,183.343,0c0-1.517,0-2.703,0-3.89c0-17.021-0.115-34.046,0.04-51.066c0.109-11.987-2.965-23.062-8.708-33.467
				c-8.139-14.744-19.977-26.321-32.096-37.71c-7.935-7.454-16.053-14.845-23.031-23.152c-8.465-10.078-8.135-22.398-0.017-32.797
				c3.805-4.874,8.193-9.358,12.716-13.593c11.464-10.735,23.443-20.934,33.236-33.337c11.877-15.042,18.697-31.682,17.982-51.285
				c-0.571-15.692-0.113-31.422-0.113-47.135C457.676,194.987,457.676,193.81,457.676,192.051z"/>
			<path fill-rule="evenodd" clip-rule="evenodd" fill="#71C596" d="M239.386,567.332c0-5.257-0.112-10.358,0.141-15.442
				c0.031-0.638,1.977-1.679,3.044-1.689c12.328-0.13,24.658-0.105,36.986-0.104c69.502,0.006,139.005,0.018,208.508,0.024
				c4.543,0.001,4.544-0.006,4.545,4.66c0.002,4.12,0.001,8.239,0.001,12.552C408.091,567.332,323.921,567.332,239.386,567.332z"/>
			<path fill-rule="evenodd" clip-rule="evenodd" fill="#71C596" d="M239.563,148.625c84.465,0,168.541,0,253.021,0
				c0,5.252,0.099,10.346-0.125,15.426c-0.027,0.634-1.746,1.69-2.697,1.708c-7.962,0.148-15.928,0.108-23.893,0.107
				c-73.752-0.006-147.504-0.016-221.258-0.025c-1.609,0-3.219,0-5.048,0C239.563,159.886,239.563,154.378,239.563,148.625z"/>
			<path fill-rule="evenodd" clip-rule="evenodd" fill="#71C596" d="M283.257,515.015c-0.066-1.168-0.177-2.23-0.178-3.293
				c-0.008-8.184,0.393-16.392-0.089-24.547c-0.575-9.715,3.25-17.352,9.621-24.133c8.743-9.309,19.216-16.409,29.812-23.353
				c13.039-8.544,26.145-16.986,39.09-25.669c4.669-3.132,4.314-3.122,8.918-0.034c13.126,8.805,26.439,17.328,39.627,26.041
				c11.568,7.643,23.111,15.335,32.018,26.237c4.574,5.6,7.105,11.82,6.869,19.235c-0.269,8.395-0.047,16.804-0.038,25.206
				c0.001,1.392,0,2.783,0,4.309C393.475,515.015,338.51,515.015,283.257,515.015z"/>
			<path fill-rule="evenodd" clip-rule="evenodd" fill="#71C596" d="M366.141,339.349c-18.906-16.542-38.101-32.991-56.874-49.906
				c-9.5-8.561-17.793-18.304-22.94-30.289c-1.897-4.418-3.249-8.957-2.947-14.402c5.712,2.465,11.049,4.808,16.417,7.077
				c18.063,7.635,36.165,15.133,55.086,20.499c8.424,2.389,16.52,1.757,24.745-0.704c22.498-6.73,43.987-16.034,65.452-25.412
				c0.982-0.429,1.987-0.806,3.982-1.612c-0.604,3.651-0.797,6.719-1.641,9.598c-3.209,10.958-9.547,20.232-17.627,27.927
				c-13.25,12.62-27.217,24.485-40.86,36.693C381.229,325.714,373.564,332.658,366.141,339.349z"/>
		</g>
	</g>
</g>
</svg>
